<svg height="512" viewBox="0 0 58 58" width="512" xmlns="http://www.w3.org/2000/svg"><g id="025---Travel-Around-The-World" fill="none" transform="translate(-1)"><path id="Shape" d="m30 30c-15.237989-.0203708-27.89955243 11.741785-29 26.94-.01487988.276731.08505758.5473435.27622952.7479794s.45664376.3135223.73377048.3120206h55.98c.2771267.0015017.5425985-.1113847.7337705-.3120206.1911719-.2006359.2911094-.4712484.2762295-.7479794-1.0976047-15.1995784-13.7608604-26.9633063-29-26.94z" fill="#4fba6f"/><path id="Shape" d="m41 13h-3.49c-.3214943-.0029551-.6223345-.1589463-.81-.42-1.0092211-1.6756398-2.1423832-3.27343171-3.39-4.78-.6271439-.65473757-1.5523989-.93141937-2.4360249-.7284519-.883626.20296746-1.5954023.85567268-1.8739751 1.7184519-3.1 8.688-3.128 8.352-2.95 9.19l-.05.02c-1.053 5.256-.961 5.2-1.39 5.73l-4.15 4.99c-.6996883.8417557-.5927307 2.0895945.24 2.8l3.44-.93 4.34-4.99c.7-.8.731-1.633 1.09-3.41l1.94 2.1c.3124826.3692699.4858412.8362766.49 1.32v4.39c.0002619.5897355.2607843 1.1492934.7119297 1.5291038.4511453.3798104 1.0469189.5411513 1.6280703.4408962.9878744-.2004221 1.6883923-1.0823995 1.66-2.09v-5.64c-.0023371-.7950535-.3186179-1.5570029-.88-2.12l-3.19-3.19c-.5653505-.5627907-.7421967-1.4077226-.45-2.15l1.1-2.81 1.52 1.9c.5656685.7152951 1.4280653 1.1317517 2.34 1.13h4.56c.5305905.0028231 1.0395388-.2101411 1.41-.59.5684616-.5718399.7379389-1.4291108.4298346-2.1742425s-1.0335232-1.2323721-1.8398346-1.2357575z" fill="#3b97d3"/><circle id="Oval" cx="34.02" cy="2.98" fill="#fdd7ad" r="2.98"/><path id="Shape" d="m29.11 8.47-.81 2.3-5.69-1.9.85-2.41c.1785286-.50030059.5487526-.90902698 1.0290086-1.13602302.4802561-.22699605 1.031087-.25361201 1.5309914-.07397698l1.88.67c.4989089.17728918.9068221.54572521 1.1338047 1.024077.2269826.47835178.2543957 1.02733884.0761953 1.525923z" fill="#c03a2b"/><path id="Shape" d="m28.3 10.77c-1.593 4.452-2.22 6.119-2.22 6.22-.3877811 1.0159332-1.513512 1.5389105-2.54 1.18l-3.76-1.34c-1.0410568-.3700308-1.5850308-1.5139432-1.215-2.555s1.5139432-1.5850308 2.555-1.215c.031-.062.321-.889 1.49-4.19z" fill="#e64c3c"/><path id="Shape" d="m22.27 15.57-3.68-1.36c.3929116-1.0050687 1.5144036-1.5148378 2.53-1.15l.02-.04 1.8.66c.337616.119684.5857354.4103925.650894.7626185s-.0625426.712458-.335.945c-.2724573.232542-.648278.3020655-.985894.1823815z" fill="#c03a2b"/><path id="Shape" d="m23.589 9.183c-.6645211-.1174842-1.3120559-.3163123-1.928-.592-.5246705-.17562655-.8076266-.74332949-.632-1.268s.7433295-.80762655 1.268-.632l1.61.54c.4711033.15134958.7606814.62448384.6811195 1.11286374s-.5043377.84513886-.9991195.83913626z" fill="#c03a2b"/><path id="Shape" d="m40 50c0 4-2 3-2 8h-35.99c-.27712672.0015017-.54259854-.1113847-.73377048-.3120206s-.2911094-.4712484-.27622952-.7479794c.24912194-3.6236201 1.18579538-7.1666892 2.76-10.44 2.13 1.31 8.35 4.39 13.24-.5 5.75-5.75.48-12.42.03-12.96 4.6364774-2.3054473 9.8045523-3.3307768 14.97-2.97l2.22.3-.22 1.63s0 5-3 7c-2.79 1.86-3.85 6.3 1.62 7.73.7499514.1747327 1.5219585.2354144 2.29.18 1.68-.1 5.09.07 5.09 3.09z" fill="#285680"/><path id="Shape" d="m40 32.77c-.5522847 0-1-.4477153-1-1v-22.77c0-.55228475.4477153-1 1-1s1 .44771525 1 1v22.77c0 .5522847-.4477153 1-1 1z" fill="#cb8252"/><path id="Shape" d="m43 15c-.0027483 1.1034291-.8965709 1.9972517-2 2h-4.56c-.9119347.0017517-1.7743315-.4147049-2.34-1.13l-.93-1.16 3.16-2.71c.306.465.517 1 1.18 1h3.49c1.1032019.0032948 1.9967052.8967981 2 2z" fill="#fdd7ad"/><path id="Shape" d="m36 29v.88c.0283923 1.0076005-.6721256 1.8895779-1.66 2.09-.5811514.1002551-1.176925-.0610858-1.6280703-.4408962-.4511454-.3798104-.7116678-.9393683-.7119297-1.5291038v-1z" fill="#5d4c72"/><path id="Shape" d="m36 24.24v4.76h-4v-3.39c-.0041588-.4837234-.1775174-.9507301-.49-1.32l-1.94-2.1v-.01c-3.21-3.471-3.368-3.5-3.52-4.2-.16-.753 0-.933.96-3.61 5.983 5.546 4.114 3.754 8.11 7.75.5613821.5629971.8776629 1.3249465.88 2.12z" fill="#7d6599"/><path id="Shape" d="m29.57 22.18c-.0894388.6886446-.2264328 1.3702733-.41 2.04-.235 1.091-.364 1.017-5.02 6.37l-3.44.93c-.8327307-.7104055-.9396883-1.9582443-.24-2.8 4.416-5.31 4.42-5.174 4.57-5.88 1.044-5.211.92-4.82 1.02-4.86.15.688.28.696 3.52 4.2z" fill="#5d4c72"/></g></svg>