<?xml version="1.0" encoding="iso-8859-1"?>
<!-- Generator: Adobe Illustrator 19.0.0, SVG Export Plug-In . SVG Version: 6.00 Build 0)  -->
<svg version="1.1" id="Capa_1" xmlns="http://www.w3.org/2000/svg" xmlns:xlink="http://www.w3.org/1999/xlink" x="0px" y="0px"
	 viewBox="0 0 512 512" style="enable-background:new 0 0 512 512;" xml:space="preserve">
<circle style="fill:#ED335F;" cx="256" cy="268.52" r="243.48"/>
<path style="fill:#515A71;" d="M132.306,0c-9.383,0-16.989,7.606-16.989,16.989v11.129h33.978V16.989
	C149.296,7.606,141.689,0,132.306,0z"/>
<path style="fill:#F9B430;" d="M403.615,25.039H243.169H108.386c-17.106,0-30.973,13.867-30.973,30.973V295.85h357.174V56.011
	C434.587,38.906,420.72,25.039,403.615,25.039z"/>
<g>
	<path style="fill:#F3A225;" d="M163.28,25.039h-54.894c-17.106,0-30.973,13.867-30.973,30.973V295.85h54.893V56.012
		C132.306,38.906,146.174,25.039,163.28,25.039z"/>
	<path style="fill:#F3A225;" d="M77.413,203.158h357.174c0-23.312,0-50.428,0-73.778H77.413
		C77.413,152.731,77.413,179.846,77.413,203.158z"/>
</g>
<rect x="77.41" y="129.38" style="fill:#E08610;" width="54.893" height="73.78"/>
<circle style="fill:#FEC63B;" cx="383.8" cy="256.09" r="13.01"/>
<circle style="fill:#515A71;" cx="256" cy="166.27" r="89.83"/>
<path style="fill:#41485D;" d="M225.841,183.681c-20.008-34.655-14.294-77.096,11.21-105.234
	c-8.899,1.922-17.655,5.234-25.963,10.031c-42.963,24.805-57.683,79.741-32.878,122.703c24.805,42.962,79.74,57.683,122.703,32.878
	c8.308-4.797,15.554-10.724,21.668-17.469C285.461,234.609,245.848,218.336,225.841,183.681z"/>
<circle style="fill:#57B5E9;" cx="256" cy="166.27" r="64.08"/>
<path style="fill:#43A0D8;" d="M216.876,115.539c-15.172,11.718-24.953,30.077-24.953,50.73c0,45.548,46.34,76.624,88.477,59.255
	C232.495,212.7,204.025,163.514,216.876,115.539z"/>
<circle style="fill:#6BCAF9;" cx="256" cy="165.91" r="20.02"/>
<path style="fill:#515A71;" d="M67.978,294.824c-5.683,0-10.435,4.54-10.452,10.223c0,0.035,0,0.07,0,0.106v48.182h50.861h295.228
	h50.861V305.02l0,0c-0.009-5.608-4.604-10.196-10.212-10.196L67.978,294.824L67.978,294.824z"/>
<g>
	<path style="fill:#41485D;" d="M124.106,305.047c0.017-5.684,4.769-10.223,10.452-10.223h-66.58
		c-5.684,0-10.435,4.54-10.453,10.223c0,0.035,0,0.07,0,0.105v48.182h50.86h15.72v-48.182
		C124.106,305.117,124.106,305.082,124.106,305.047z"/>
	<path style="fill:#41485D;" d="M456.321,352.308c-16.618,0-388.518,0-400.643,0c-7.654,0-13.858,6.204-13.858,13.858
		s6.204,13.858,13.858,13.858c13.281,0,380.745,0,400.643,0c7.654,0,13.858-6.204,13.858-13.858S463.975,352.308,456.321,352.308z"
		/>
</g>
<path style="fill:#343B4C;" d="M123.26,366.165c0-7.653,6.204-13.858,13.858-13.858c-45.323,0-77.985,0-81.44,0
	c-7.654,0-13.858,6.205-13.858,13.858c0,7.654,6.204,13.858,13.858,13.858c3.786,0,36.354,0,81.44,0
	C129.464,380.023,123.26,373.819,123.26,366.165z"/>
<path style="fill:#F7F7F7;" d="M123.26,472.65C161.443,497.53,207.029,512,256,512s94.557-14.47,132.74-39.35V325.619H123.26V472.65
	z"/>
<path style="fill:#E2E2E2;" d="M178.843,325.619H123.26V472.65c17.153,11.177,35.805,20.245,55.582,26.852V325.619H178.843z"/>
<path style="fill:#6BCAF9;" d="M150.976,488.24C182.775,503.467,218.39,512,256,512s73.225-8.533,105.024-23.76V325.619H150.976
	V488.24z"/>
<path style="fill:#57B5E9;" d="M173.423,497.612c1.346,0.485,2.697,0.959,4.053,1.421c0.454,0.155,0.911,0.305,1.366,0.458V325.619
	h-27.867v162.603C158.935,492.026,166.107,494.975,173.423,497.612z"/>
<path style="fill:#43A0D8;" d="M361.024,388.57l-33.222-33.457c-7.517-7.569-19.759-7.569-27.276,0l-63.125,63.57l29.601,29.81
	c2.417-0.969,5.052-1.511,7.818-1.511c5.33,0,10.19,1.981,13.898,5.245c2.809,2.472,7.095,2.472,9.904-0.001
	c3.708-3.263,8.568-5.244,13.898-5.244c5.352,0,10.229,1.997,13.943,5.284c2.776,2.456,7.038,2.456,9.813,0
	c3.714-3.287,8.591-5.284,13.943-5.284c3.955,0,7.647,1.097,10.806,2.993V388.57H361.024z"/>
<path style="fill:#238CC1;" d="M334.623,361.983l-6.821-6.869c-7.517-7.569-19.759-7.569-27.276,0l-63.125,63.57l20.459,20.603
	L334.623,361.983z"/>
<path style="fill:#57B5E9;" d="M183.791,384.817l-32.815,33.047v32.079c3.146-1.875,6.816-2.96,10.746-2.96
	c5.366,0,10.256,2.008,13.974,5.311c2.753,2.446,6.999,2.446,9.753,0c3.717-3.303,8.607-5.311,13.973-5.311
	c5.342,0,10.213,1.991,13.924,5.267c2.789,2.464,7.062,2.464,9.851,0c3.712-3.277,8.582-5.268,13.924-5.268
	c5.366,0,10.256,2.008,13.973,5.311c2.753,2.446,6.999,2.446,9.752,0c1.801-1.601,3.882-2.889,6.156-3.801l-63.231-63.676
	C198.266,379.273,189.297,379.273,183.791,384.817z"/>
<path style="fill:#43A0D8;" d="M210.444,391.537l-6.673-6.72c-5.506-5.544-14.474-5.544-19.981,0l-32.815,33.046v32.08
	c0.453-0.27,0.918-0.521,1.394-0.755c0.023-0.012,0.048-0.022,0.071-0.034c0.464-0.227,0.937-0.438,1.419-0.634
	c2.429-0.984,5.078-1.538,7.863-1.538c5.366,0,10.256,2.008,13.974,5.312c0.919,0.817,2.006,1.354,3.146,1.625v-24.16
	c0-4.098,1.62-8.029,4.508-10.937L210.444,391.537z"/>
<path style="fill:#40C488;" d="M336.276,451.241c-2.776,2.457-7.038,2.457-9.813,0c-3.713-3.287-8.591-5.284-13.943-5.284
	c-5.33,0-10.19,1.981-13.898,5.244c-2.808,2.472-7.095,2.472-9.904,0c-3.708-3.263-8.568-5.245-13.898-5.245
	c-5.366,0-10.256,2.008-13.973,5.312c-2.753,2.446-6.999,2.446-9.752,0c-3.717-3.303-8.607-5.312-13.973-5.312
	c-5.343,0-10.213,1.991-13.924,5.268c-2.789,2.463-7.062,2.463-9.851-0.001c-3.711-3.276-8.582-5.267-13.924-5.267
	c-5.366,0-10.256,2.008-13.973,5.312c-2.754,2.446-7,2.446-9.753,0c-3.718-3.303-8.607-5.312-13.974-5.312
	c-3.93,0-7.601,1.085-10.746,2.96v39.323C182.775,503.467,218.39,512,256,512s73.225-8.533,105.024-23.76v-39.29
	c-3.158-1.896-6.851-2.993-10.806-2.993C344.867,445.957,339.989,447.954,336.276,451.241z"/>
<path style="fill:#37B77A;" d="M173.423,497.612c1.346,0.485,2.697,0.959,4.053,1.421c0.454,0.155,0.911,0.305,1.366,0.458v-46.598
	c-1.141-0.271-2.228-0.809-3.147-1.625c-3.718-3.303-8.607-5.312-13.974-5.312c-3.93,0-7.601,1.085-10.746,2.96v39.304
	C158.889,492.004,166.044,494.952,173.423,497.612z"/>
<path style="fill:#7D899E;" d="M396.661,333.317H115.913c-4.252,0-7.699-3.446-7.699-7.699s3.447-7.699,7.699-7.699h280.749
	c4.252,0,7.699,3.446,7.699,7.699S400.913,333.317,396.661,333.317z"/>
<path style="fill:#616B84;" d="M171.6,325.619c0-4.252,3.447-7.699,7.699-7.699h-63.386c-4.252,0-7.699,3.446-7.699,7.699
	s3.447,7.699,7.699,7.699h63.386C175.047,333.317,171.6,329.871,171.6,325.619z"/>
<path style="fill:#FEC63B;" d="M297.9,492.149c-20.956,0-20.956-18.478-41.911-18.478c-20.955,0-20.955,18.478-41.909,18.478
	c-20.954,0-20.954-18.478-41.908-18.478c-10.638,0-15.875,4.763-21.195,9.453v5.116C182.775,503.467,218.39,512,256,512
	s73.225-8.533,105.024-23.76v-5.103c-5.326-4.693-10.565-9.465-21.215-9.465C318.855,473.672,318.855,492.149,297.9,492.149z"/>
<path style="fill:#F3A225;" d="M173.423,497.612c1.346,0.485,2.697,0.959,4.053,1.421c0.454,0.155,0.911,0.305,1.366,0.458v-25.086
	c-1.975-0.463-4.171-0.733-6.672-0.733c-10.638,0-15.875,4.763-21.195,9.453v5.097C158.889,492.004,166.044,494.952,173.423,497.612
	z"/>
<path style="fill:#ED335F;" d="M399.805,84.741h-32.012c-3.806,0-6.919-3.114-6.919-6.919V61.55c0-3.806,3.114-6.919,6.919-6.919
	h32.012c3.806,0,6.919,3.114,6.919,6.919v16.272C406.725,81.628,403.611,84.741,399.805,84.741z"/>
<path style="fill:#DB2659;" d="M383.8,77.822V61.55c0-3.806,3.114-6.919,6.919-6.919h-22.925c-3.806,0-6.92,3.114-6.92,6.919v16.272
	c0,3.806,3.114,6.919,6.92,6.919h22.925C386.913,84.741,383.8,81.627,383.8,77.822z"/>
<g>
</g>
<g>
</g>
<g>
</g>
<g>
</g>
<g>
</g>
<g>
</g>
<g>
</g>
<g>
</g>
<g>
</g>
<g>
</g>
<g>
</g>
<g>
</g>
<g>
</g>
<g>
</g>
<g>
</g>
</svg>
