<?xml version="1.0" encoding="iso-8859-1"?>
<!-- Generator: Adobe Illustrator 19.0.0, SVG Export Plug-In . SVG Version: 6.00 Build 0)  -->
<svg version="1.1" id="Capa_1" xmlns="http://www.w3.org/2000/svg" xmlns:xlink="http://www.w3.org/1999/xlink" x="0px" y="0px"
	 viewBox="0 0 512 512" style="enable-background:new 0 0 512 512;" xml:space="preserve">
<path style="fill:#60312C;" d="M221.25,292.504v196.588l24.872,8.29c3.93,1.31,6.053,5.557,4.743,9.487s-5.555,6.053-9.487,4.744
	l-30-10c-3.062-1.021-5.128-3.887-5.128-7.115V292.504H221.25z"/>
<path style="fill:#85453D;" d="M161.25,292.504v196.588l24.872,8.29c3.93,1.31,6.053,5.557,4.743,9.487s-5.555,6.053-9.487,4.744
	l-30-10c-3.062-1.021-5.128-3.887-5.128-7.115V292.504H161.25z"/>
<path style="fill:#A45E43;" d="M101.25,292.504v196.588l24.872,8.29c3.93,1.31,6.053,5.557,4.743,9.487s-5.555,6.053-9.487,4.744
	l-30-10c-3.062-1.021-5.128-3.887-5.128-7.115V292.504H101.25z"/>
<path style="fill:#C27749;" d="M41.25,292.504v196.588l24.872,8.29c3.93,1.31,6.053,5.557,4.743,9.487s-5.555,6.053-9.487,4.744
	l-30-10c-3.062-1.021-5.128-3.887-5.128-7.115V292.504H41.25z"/>
<path style="fill:#60312C;" d="M183.75,262.5v75c24.853,0,45-20.147,45-45L183.75,262.5z"/>
<path style="fill:#85453D;" d="M198.75,292.5l-15-30l-45,30c0,24.853,20.147,45,45,45C192.034,337.5,198.75,317.353,198.75,292.5z"
	/>
<path style="fill:#FFA754;" d="M208.75,172.5h-30l20,120h30v-100C228.75,181.454,219.796,172.5,208.75,172.5z"/>
<path style="fill:#FFCB63;" d="M178.75,172.5h-20c-11.046,0-20,8.954-20,20v100h60v-100C198.75,181.454,189.796,172.5,178.75,172.5z
	"/>
<path style="fill:#FF8D7E;" d="M183.75,52.5v90c24.853,0,45-20.147,45-45S208.603,52.5,183.75,52.5z"/>
<path style="fill:#FFB4A9;" d="M198.75,97.5c0-24.853-6.716-45-15-45c-24.853,0-45,20.147-45,45s20.147,45,45,45
	C192.034,142.5,198.75,122.353,198.75,97.5z"/>
<circle style="fill:#60312C;" cx="63.75" cy="30" r="22.5"/>
<path style="fill:#A45E43;" d="M98.005,68.335c0.01-0.01-34.255-0.005-34.255-0.005v74.17c24.85,0,45-20.15,45-45
	C108.75,86.38,104.705,76.185,98.005,68.335z"/>
<path style="fill:#C27749;" d="M77.64,80.51L29.495,68.335C22.795,76.185,18.75,86.38,18.75,97.5c0,24.85,20.15,45,45,45
	c8.28,0,15-20.15,15-45C78.75,91.49,78.36,85.75,77.64,80.51z"/>
<path style="fill:#40211D;" d="M63.75,52.5l13.89,28.01c7.45-2.23,14.475-6.295,20.365-12.175C89.755,58.645,77.47,52.5,63.75,52.5z
	"/>
<path style="fill:#60312C;" d="M63.75,52.5c-13.72,0-26.005,6.145-34.255,15.835C42.535,81.375,61.14,85.44,77.64,80.51
	C75.41,64.08,70.03,52.5,63.75,52.5z"/>
<path style="fill:#2DADE3;" d="M88.75,172.5h-30v120l50-30v-70C108.75,181.454,99.796,172.5,88.75,172.5z"/>
<path style="fill:#49C9FF;" d="M58.75,172.5h-20c-11.046,0-20,8.954-20,20v100h60v-100C78.75,181.454,69.796,172.5,58.75,172.5z"/>
<polygon style="fill:#FF4128;" points="108.75,262.5 78.75,262.5 58.75,300 78.75,352.5 108.75,352.5 "/>
<path style="fill:#FF6337;" d="M78.75,262.5h-60c-9.329,10.575-15,24.454-15,39.665V352.5h75V262.5z"/>
<path style="fill:#116F97;" d="M330.75,185c-28.948,0-52.5-23.551-52.5-52.5c0-4.142-3.357-7.5-7.5-7.5s-7.5,3.358-7.5,7.5
	c0,37.22,30.28,67.5,67.5,67.5h75v-15H330.75z"/>
<polygon style="fill:#FF4128;" points="270.75,67.5 330.75,37.5 270.75,7.5 "/>
<path style="fill:#FF8646;" d="M270.75,110c-4.143,0-7.5-3.358-7.5-7.5v-95c0-4.142,3.357-7.5,7.5-7.5s7.5,3.358,7.5,7.5v95
	C278.25,106.642,274.893,110,270.75,110z"/>
<path style="fill:#084F6D;" d="M450.75,185h-45v15h45c23.435,0,42.5,19.065,42.5,42.5s-19.065,42.5-42.5,42.5h-45v15h45
	c31.706,0,57.5-25.794,57.5-57.5S482.456,185,450.75,185z"/>
<path style="fill:#2DADE3;" d="M368.25,292.504v196.588l-24.872,8.29c-3.93,1.31-6.053,5.557-4.743,9.487s5.555,6.053,9.487,4.744
	l30-10c3.062-1.021,5.128-3.887,5.128-7.115V292.504H368.25z"/>
<g>
	<path style="fill:#1990C2;" d="M428.25,292.504v196.588l-24.872,8.29c-3.93,1.31-6.053,5.557-4.743,9.487s5.555,6.053,9.487,4.744
		l30-10c3.062-1.021,5.128-3.887,5.128-7.115V292.504H428.25z"/>
	<path style="fill:#1990C2;" d="M405.75,262.5v75c24.853,0,45-20.147,45-45L405.75,262.5z"/>
</g>
<path style="fill:#2DADE3;" d="M420.75,292.5l-15-30l-45,30c0,24.853,20.147,45,45,45C414.034,337.5,420.75,317.353,420.75,292.5z"
	/>
<path style="fill:#084F6D;" d="M430.75,172.5l-55,14.998l30,105.002h45v-100C450.75,181.454,441.796,172.5,430.75,172.5z"/>
<path style="fill:#116F97;" d="M380.75,172.5c-11.046,0-20,8.954-20,20v100h45V187.498L380.75,172.5z"/>
<polygon style="fill:#DBF4FF;" points="380.75,172.5 405.75,217.49 430.75,172.5 "/>
<path style="fill:#FFB4A9;" d="M405.75,52.5v101l45-46v-10C450.75,72.647,430.603,52.5,405.75,52.5z"/>
<path style="fill:#FFD9D4;" d="M405.75,52.5c-24.853,0-45,20.147-45,45v10l60,46v-56C420.75,72.647,414.034,52.5,405.75,52.5z"/>
<path style="fill:#FF6337;" d="M424.459,107.5c-1.053-1.573-2.303-3.002-3.709-4.261l-15,69.261c24.853,0,45-20.147,45-45v-20
	H424.459z"/>
<path style="fill:#FF8646;" d="M420.75,127.5v-24.261c-3.981-3.566-9.235-5.739-15-5.739c-7.801,0-14.672,3.971-18.709,10H360.75v20
	c0,24.853,20.147,45,45,45C414.034,172.5,420.75,152.353,420.75,127.5z"/>
<g>
</g>
<g>
</g>
<g>
</g>
<g>
</g>
<g>
</g>
<g>
</g>
<g>
</g>
<g>
</g>
<g>
</g>
<g>
</g>
<g>
</g>
<g>
</g>
<g>
</g>
<g>
</g>
<g>
</g>
</svg>
